<svg id="noun_question_mark_1970376" data-name="noun_question mark_1970376" xmlns="http://www.w3.org/2000/svg" width="23.997" height="24" viewBox="0 0 23.997 24">
  <path id="Path_48413" data-name="Path 48413" d="M13.5,1.5a12,12,0,1,0,12,12A12,12,0,0,0,13.5,1.5Zm-.842,19.87a1.5,1.5,0,1,1,1.5-1.5A1.5,1.5,0,0,1,12.658,21.37Zm5.047-10.138a6.153,6.153,0,0,1-2.839,2.9c-.833.5-.91.6-.91.778v.818a1.3,1.3,0,1,1-2.6,0v-.818c0-1.71,1.259-2.462,2.18-3.008a3.73,3.73,0,0,0,1.784-1.7,1.289,1.289,0,0,0-.282-1.32,1.991,1.991,0,0,0-2.058-.57,1.8,1.8,0,0,0-1.383,2,1.3,1.3,0,1,1-2.578.311,4.376,4.376,0,0,1,3.308-4.825,4.562,4.562,0,0,1,4.686,1.4A3.836,3.836,0,0,1,17.705,11.233Z" transform="translate(-1.502 -1.5)" fill="#0a6cbf"/>
</svg>
